<?xml version='1.0' encoding='utf-8'?>
<svg xmlns="http://www.w3.org/2000/svg" width="100%" height="100%" version="1.1" style="shape-rendering:geometricPrecision; text-rendering:geometricPrecision; image-rendering:optimizeQuality; fill-rule:evenodd; clip-rule:evenodd" viewBox="0 0 9144 9144"> <defs> <style type="text/css">  .fil0 {fill:white} .fil1 {fill:#6441A5;fill-rule:nonzero}  </style> </defs> <g id="Camada_x0020_1"> <metadata id="CorelCorpID_0Corel-Layer"/> <polygon class="fil0" points="0,0 9144,0 9144,9144 0,9144 "/> <path class="fil1" d="M5344 4738l-325 0c-47,0 -85,-38 -85,-85l0 -1056c0,-47 38,-85 85,-85l325 0c47,0 85,38 85,85l0 1056c0,47 -38,85 -85,85zm1219 -2283l-3698 0 0 1c-29,0 -57,15 -73,42l-281 482c-10,14 -15,30 -15,48l0 3007c0,47 38,85 85,85l890 0 0 484c0,47 38,85 85,85l569 0 0 0c20,0 40,-8 57,-22l607 -547 758 0 0 0c21,0 41,-8 58,-23l1012 -931c19,-15 31,-39 31,-66l0 -2560c0,-47 -38,-85 -85,-85zm-3247 2845l0 -2269 2675 0 0 1790 -479 479 -899 0c-22,0 -44,8 -60,25l-343 343 0 -283c0,-47 -38,-85 -85,-85l-809 0zm1215 -562l-325 0c-47,0 -84,-38 -84,-85l0 -1056c0,-47 37,-85 84,-85l325 0c47,0 85,38 85,85l0 1056c0,47 -38,85 -85,85zm-240 -169l156 0 0 -888 -156 0 0 888zm813 0l156 0 0 -888 -156 0 0 888z"/> </g> </svg>